<svg id="my-svg" width="100%" xmlns="http://www.w3.org/2000/svg" xmlns:xlink="http://www.w3.org/1999/xlink" style="max-width: 700px; background-color: white;" viewBox="0 0 700 500" role="graphics-document document" aria-roledescription="xychart"><style>#my-svg{font-family:"trebuchet ms",verdana,arial,sans-serif;font-size:16px;fill:#333;}@keyframes edge-animation-frame{from{stroke-dashoffset:0;}}@keyframes dash{to{stroke-dashoffset:0;}}#my-svg .edge-animation-slow{stroke-dasharray:9,5!important;stroke-dashoffset:900;animation:dash 50s linear infinite;stroke-linecap:round;}#my-svg .edge-animation-fast{stroke-dasharray:9,5!important;stroke-dashoffset:900;animation:dash 20s linear infinite;stroke-linecap:round;}#my-svg .error-icon{fill:#552222;}#my-svg .error-text{fill:#552222;stroke:#552222;}#my-svg .edge-thickness-normal{stroke-width:1px;}#my-svg .edge-thickness-thick{stroke-width:3.5px;}#my-svg .edge-pattern-solid{stroke-dasharray:0;}#my-svg .edge-thickness-invisible{stroke-width:0;fill:none;}#my-svg .edge-pattern-dashed{stroke-dasharray:3;}#my-svg .edge-pattern-dotted{stroke-dasharray:2;}#my-svg .marker{fill:#333333;stroke:#333333;}#my-svg .marker.cross{stroke:#333333;}#my-svg svg{font-family:"trebuchet ms",verdana,arial,sans-serif;font-size:16px;}#my-svg p{margin:0;}#my-svg .node .neo-node{stroke:#9370DB;}#my-svg [data-look="neo"].node rect,#my-svg [data-look="neo"].cluster rect,#my-svg [data-look="neo"].node polygon{stroke:#9370DB;filter:drop-shadow(1px 2px 2px rgba(185, 185, 185, 1));}#my-svg [data-look="neo"].node path{stroke:#9370DB;stroke-width:1px;}#my-svg [data-look="neo"].node .outer-path{filter:drop-shadow(1px 2px 2px rgba(185, 185, 185, 1));}#my-svg [data-look="neo"].node .neo-line path{stroke:#9370DB;filter:none;}#my-svg [data-look="neo"].node circle{stroke:#9370DB;filter:drop-shadow(1px 2px 2px rgba(185, 185, 185, 1));}#my-svg [data-look="neo"].node circle .state-start{fill:#000000;}#my-svg [data-look="neo"].icon-shape .icon{fill:#9370DB;filter:drop-shadow(1px 2px 2px rgba(185, 185, 185, 1));}#my-svg [data-look="neo"].icon-shape .icon-neo path{stroke:#9370DB;filter:drop-shadow(1px 2px 2px rgba(185, 185, 185, 1));}#my-svg :root{--mermaid-font-family:"trebuchet ms",verdana,arial,sans-serif;}</style><g/><g class="main"><rect width="700" height="500" class="background" fill="white"/><g class="chart-title"><text x="0" y="0" fill="#131300" font-size="20" dominant-baseline="middle" text-anchor="middle" transform="translate(350, 23.0107421875) rotate(0)">O Notation: f(n) ≤ c·g(n) for n ≥ n₀</text></g><g class="plot"><g class="line-plot-0"><path d="M75.375,430L106.239,409.492L137.103,388.984L167.967,368.476L198.831,347.968L229.695,327.46L260.559,306.952L291.423,286.445L322.288,265.937L353.152,245.429L384.016,224.921L414.88,204.413L445.744,183.905L476.608,163.397L507.472,142.889L538.336,122.381L569.2,101.873L600.064,81.365L630.928,60.857L661.792,40.35L692.656,19.842" fill="none" stroke="#ECECFF" stroke-width="2"/></g><g class="line-plot-1"><path d="M75.375,430L106.239,421.455L137.103,402.656L167.967,383.857L198.831,368.476L229.695,344.55L260.559,330.878L291.423,310.37L322.288,289.863L353.152,276.191L384.016,250.556L414.88,242.011L445.744,216.376L476.608,204.413L507.472,177.069L538.336,165.106L569.2,139.471L600.064,125.799L630.928,101.873L661.792,88.201L692.656,57.439" fill="none" stroke="#8493A6" stroke-width="2"/></g></g><g class="bottom-axis"><g class="axis-line"><path d="M 68.03125190734863,438.99999809265137 L 700,438.99999809265137" fill="none" stroke="#131300" stroke-width="2"/></g><g class="label"><text x="0" y="0" fill="#131300" font-size="14" dominant-baseline="text-before-edge" text-anchor="middle" transform="translate(75.37500190734863, 449.99999809265137) rotate(0)">0</text><text x="0" y="0" fill="#131300" font-size="14" dominant-baseline="text-before-edge" text-anchor="middle" transform="translate(137.10312671661376, 449.99999809265137) rotate(0)">2</text><text x="0" y="0" fill="#131300" font-size="14" dominant-baseline="text-before-edge" text-anchor="middle" transform="translate(198.8312515258789, 449.99999809265137) rotate(0)">4</text><text x="0" y="0" fill="#131300" font-size="14" dominant-baseline="text-before-edge" text-anchor="middle" transform="translate(260.55937633514407, 449.99999809265137) rotate(0)">6</text><text x="0" y="0" fill="#131300" font-size="14" dominant-baseline="text-before-edge" text-anchor="middle" transform="translate(322.2875011444092, 449.99999809265137) rotate(0)">8</text><text x="0" y="0" fill="#131300" font-size="14" dominant-baseline="text-before-edge" text-anchor="middle" transform="translate(384.0156259536743, 449.99999809265137) rotate(0)">10</text><text x="0" y="0" fill="#131300" font-size="14" dominant-baseline="text-before-edge" text-anchor="middle" transform="translate(445.74375076293944, 449.99999809265137) rotate(0)">12</text><text x="0" y="0" fill="#131300" font-size="14" dominant-baseline="text-before-edge" text-anchor="middle" transform="translate(507.4718755722045, 449.99999809265137) rotate(0)">14</text><text x="0" y="0" fill="#131300" font-size="14" dominant-baseline="text-before-edge" text-anchor="middle" transform="translate(569.2000003814697, 449.99999809265137) rotate(0)">16</text><text x="0" y="0" fill="#131300" font-size="14" dominant-baseline="text-before-edge" text-anchor="middle" transform="translate(630.9281251907348, 449.99999809265137) rotate(0)">18</text><text x="0" y="0" fill="#131300" font-size="14" dominant-baseline="text-before-edge" text-anchor="middle" transform="translate(692.65625, 449.99999809265137) rotate(0)">20</text></g><g class="ticks"><path d="M 75.37500190734863,439.99999809265137 L 75.37500190734863,444.99999809265137" fill="none" stroke="#131300" stroke-width="2"/><path d="M 137.10312671661376,439.99999809265137 L 137.10312671661376,444.99999809265137" fill="none" stroke="#131300" stroke-width="2"/><path d="M 198.8312515258789,439.99999809265137 L 198.8312515258789,444.99999809265137" fill="none" stroke="#131300" stroke-width="2"/><path d="M 260.55937633514407,439.99999809265137 L 260.55937633514407,444.99999809265137" fill="none" stroke="#131300" stroke-width="2"/><path d="M 322.2875011444092,439.99999809265137 L 322.2875011444092,444.99999809265137" fill="none" stroke="#131300" stroke-width="2"/><path d="M 384.0156259536743,439.99999809265137 L 384.0156259536743,444.99999809265137" fill="none" stroke="#131300" stroke-width="2"/><path d="M 445.74375076293944,439.99999809265137 L 445.74375076293944,444.99999809265137" fill="none" stroke="#131300" stroke-width="2"/><path d="M 507.4718755722045,439.99999809265137 L 507.4718755722045,444.99999809265137" fill="none" stroke="#131300" stroke-width="2"/><path d="M 569.2000003814697,439.99999809265137 L 569.2000003814697,444.99999809265137" fill="none" stroke="#131300" stroke-width="2"/><path d="M 630.9281251907348,439.99999809265137 L 630.9281251907348,444.99999809265137" fill="none" stroke="#131300" stroke-width="2"/><path d="M 692.65625,439.99999809265137 L 692.65625,444.99999809265137" fill="none" stroke="#131300" stroke-width="2"/></g><g class="title"><text x="0" y="0" fill="#131300" font-size="16" dominant-baseline="text-before-edge" text-anchor="middle" transform="translate(384.0156259536743, 475.99999809265137) rotate(0)">n</text></g></g><g class="left-axis"><g class="axisl-line"><path d="M 67.03125190734863,46.021484375 L 67.03125190734863,437.99999809265137" fill="none" stroke="#131300" stroke-width="2"/></g><g class="label"><text x="0" y="0" fill="#131300" font-size="14" dominant-baseline="middle" text-anchor="end" transform="translate(56.03125190734863, 54.021484375) rotate(0)">220</text><text x="0" y="0" fill="#131300" font-size="14" dominant-baseline="middle" text-anchor="end" transform="translate(56.03125190734863, 88.20134925842285) rotate(0)">200</text><text x="0" y="0" fill="#131300" font-size="14" dominant-baseline="middle" text-anchor="end" transform="translate(56.03125190734863, 122.38121414184569) rotate(0)">180</text><text x="0" y="0" fill="#131300" font-size="14" dominant-baseline="middle" text-anchor="end" transform="translate(56.03125190734863, 156.56107902526855) rotate(0)">160</text><text x="0" y="0" fill="#131300" font-size="14" dominant-baseline="middle" text-anchor="end" transform="translate(56.03125190734863, 190.7409439086914) rotate(0)">140</text><text x="0" y="0" fill="#131300" font-size="14" dominant-baseline="middle" text-anchor="end" transform="translate(56.03125190734863, 224.92080879211426) rotate(0)">120</text><text x="0" y="0" fill="#131300" font-size="14" dominant-baseline="middle" text-anchor="end" transform="translate(56.03125190734863, 259.1006736755371) rotate(0)">100</text><text x="0" y="0" fill="#131300" font-size="14" dominant-baseline="middle" text-anchor="end" transform="translate(56.03125190734863, 293.28053855895996) rotate(0)">80</text><text x="0" y="0" fill="#131300" font-size="14" dominant-baseline="middle" text-anchor="end" transform="translate(56.03125190734863, 327.46040344238287) rotate(0)">60</text><text x="0" y="0" fill="#131300" font-size="14" dominant-baseline="middle" text-anchor="end" transform="translate(56.03125190734863, 361.6402683258056) rotate(0)">40</text><text x="0" y="0" fill="#131300" font-size="14" dominant-baseline="middle" text-anchor="end" transform="translate(56.03125190734863, 395.8201332092285) rotate(0)">20</text><text x="0" y="0" fill="#131300" font-size="14" dominant-baseline="middle" text-anchor="end" transform="translate(56.03125190734863, 429.99999809265137) rotate(0)">0</text></g><g class="ticks"><path d="M 66.03125190734863,54.021484375 L 61.03125190734863,54.021484375" fill="none" stroke="#131300" stroke-width="2"/><path d="M 66.03125190734863,88.20134925842285 L 61.03125190734863,88.20134925842285" fill="none" stroke="#131300" stroke-width="2"/><path d="M 66.03125190734863,122.38121414184569 L 61.03125190734863,122.38121414184569" fill="none" stroke="#131300" stroke-width="2"/><path d="M 66.03125190734863,156.56107902526855 L 61.03125190734863,156.56107902526855" fill="none" stroke="#131300" stroke-width="2"/><path d="M 66.03125190734863,190.7409439086914 L 61.03125190734863,190.7409439086914" fill="none" stroke="#131300" stroke-width="2"/><path d="M 66.03125190734863,224.92080879211426 L 61.03125190734863,224.92080879211426" fill="none" stroke="#131300" stroke-width="2"/><path d="M 66.03125190734863,259.1006736755371 L 61.03125190734863,259.1006736755371" fill="none" stroke="#131300" stroke-width="2"/><path d="M 66.03125190734863,293.28053855895996 L 61.03125190734863,293.28053855895996" fill="none" stroke="#131300" stroke-width="2"/><path d="M 66.03125190734863,327.46040344238287 L 61.03125190734863,327.46040344238287" fill="none" stroke="#131300" stroke-width="2"/><path d="M 66.03125190734863,361.6402683258056 L 61.03125190734863,361.6402683258056" fill="none" stroke="#131300" stroke-width="2"/><path d="M 66.03125190734863,395.8201332092285 L 61.03125190734863,395.8201332092285" fill="none" stroke="#131300" stroke-width="2"/><path d="M 66.03125190734863,429.99999809265137 L 61.03125190734863,429.99999809265137" fill="none" stroke="#131300" stroke-width="2"/></g><g class="title"><text x="0" y="0" fill="#131300" font-size="16" dominant-baseline="text-before-edge" text-anchor="middle" transform="translate(5, 242.01074123382568) rotate(270)">Value</text></g></g></g><g class="mermaid-tmp-group"/></svg>