<svg id="my-svg" width="100%" xmlns="http://www.w3.org/2000/svg" xmlns:xlink="http://www.w3.org/1999/xlink" style="max-width: 700px; background-color: white;" viewBox="0 0 700 500" role="graphics-document document" aria-roledescription="xychart"><style>#my-svg{font-family:"trebuchet ms",verdana,arial,sans-serif;font-size:16px;fill:#333;}@keyframes edge-animation-frame{from{stroke-dashoffset:0;}}@keyframes dash{to{stroke-dashoffset:0;}}#my-svg .edge-animation-slow{stroke-dasharray:9,5!important;stroke-dashoffset:900;animation:dash 50s linear infinite;stroke-linecap:round;}#my-svg .edge-animation-fast{stroke-dasharray:9,5!important;stroke-dashoffset:900;animation:dash 20s linear infinite;stroke-linecap:round;}#my-svg .error-icon{fill:#552222;}#my-svg .error-text{fill:#552222;stroke:#552222;}#my-svg .edge-thickness-normal{stroke-width:1px;}#my-svg .edge-thickness-thick{stroke-width:3.5px;}#my-svg .edge-pattern-solid{stroke-dasharray:0;}#my-svg .edge-thickness-invisible{stroke-width:0;fill:none;}#my-svg .edge-pattern-dashed{stroke-dasharray:3;}#my-svg .edge-pattern-dotted{stroke-dasharray:2;}#my-svg .marker{fill:#333333;stroke:#333333;}#my-svg .marker.cross{stroke:#333333;}#my-svg svg{font-family:"trebuchet ms",verdana,arial,sans-serif;font-size:16px;}#my-svg p{margin:0;}#my-svg .node .neo-node{stroke:#9370DB;}#my-svg [data-look="neo"].node rect,#my-svg [data-look="neo"].cluster rect,#my-svg [data-look="neo"].node polygon{stroke:#9370DB;filter:drop-shadow(1px 2px 2px rgba(185, 185, 185, 1));}#my-svg [data-look="neo"].node path{stroke:#9370DB;stroke-width:1px;}#my-svg [data-look="neo"].node .outer-path{filter:drop-shadow(1px 2px 2px rgba(185, 185, 185, 1));}#my-svg [data-look="neo"].node .neo-line path{stroke:#9370DB;filter:none;}#my-svg [data-look="neo"].node circle{stroke:#9370DB;filter:drop-shadow(1px 2px 2px rgba(185, 185, 185, 1));}#my-svg [data-look="neo"].node circle .state-start{fill:#000000;}#my-svg [data-look="neo"].icon-shape .icon{fill:#9370DB;filter:drop-shadow(1px 2px 2px rgba(185, 185, 185, 1));}#my-svg [data-look="neo"].icon-shape .icon-neo path{stroke:#9370DB;filter:drop-shadow(1px 2px 2px rgba(185, 185, 185, 1));}#my-svg :root{--mermaid-font-family:"trebuchet ms",verdana,arial,sans-serif;}</style><g/><g class="main"><rect width="700" height="500" class="background" fill="white"/><g class="chart-title"><text x="0" y="0" fill="#131300" font-size="20" dominant-baseline="middle" text-anchor="middle" transform="translate(350, 21.58984375) rotate(0)">Growth Rate Comparison (n = 1..8, capped at 300)</text></g><g class="plot"><g class="line-plot-0"><path d="M71.703,428.737L160.935,428.737L250.167,428.737L339.4,428.737L428.632,428.737L517.864,428.737L607.096,428.737L696.328,428.737" fill="none" stroke="#ECECFF" stroke-width="2"/></g><g class="line-plot-1"><path d="M71.703,430L160.935,428.737L250.167,428.005L339.4,427.475L428.632,427.07L517.864,426.742L607.096,426.452L696.328,426.212" fill="none" stroke="#8493A6" stroke-width="2"/></g><g class="line-plot-2"><path d="M71.703,428.737L160.935,428.22L250.167,427.815L339.4,427.475L428.632,427.171L517.864,426.906L607.096,426.654L696.328,426.426" fill="none" stroke="#FFC3A0" stroke-width="2"/></g><g class="line-plot-3"><path d="M71.703,428.737L160.935,427.475L250.167,426.212L339.4,424.949L428.632,423.686L517.864,422.424L607.096,421.161L696.328,419.898" fill="none" stroke="#DCDDE1" stroke-width="2"/></g><g class="line-plot-4"><path d="M71.703,430L160.935,427.475L250.167,424.002L339.4,419.898L428.632,415.34L517.864,410.415L607.096,405.187L696.328,399.694" fill="none" stroke="#B8E994" stroke-width="2"/></g><g class="line-plot-5"><path d="M71.703,428.737L160.935,424.949L250.167,418.635L339.4,409.796L428.632,398.432L517.864,384.542L607.096,368.126L696.328,349.185" fill="none" stroke="#D1A36F" stroke-width="2"/></g><g class="line-plot-6"><path d="M71.703,427.475L160.935,424.949L250.167,419.898L339.4,409.796L428.632,389.592L517.864,349.185L607.096,268.37L696.328,106.74" fill="none" stroke="#C3CDE6" stroke-width="2"/></g></g><g class="bottom-axis"><g class="axis-line"><path d="M 68.03125190734863,438.99999809265137 L 700,438.99999809265137" fill="none" stroke="#131300" stroke-width="2"/></g><g class="label"><text x="0" y="0" fill="#131300" font-size="14" dominant-baseline="text-before-edge" text-anchor="middle" transform="translate(71.70312690734863, 449.99999809265137) rotate(0)">1</text><text x="0" y="0" fill="#131300" font-size="14" dominant-baseline="text-before-edge" text-anchor="middle" transform="translate(160.9352694920131, 449.99999809265137) rotate(0)">2</text><text x="0" y="0" fill="#131300" font-size="14" dominant-baseline="text-before-edge" text-anchor="middle" transform="translate(250.1674120766776, 449.99999809265137) rotate(0)">3</text><text x="0" y="0" fill="#131300" font-size="14" dominant-baseline="text-before-edge" text-anchor="middle" transform="translate(339.3995546613421, 449.99999809265137) rotate(0)">4</text><text x="0" y="0" fill="#131300" font-size="14" dominant-baseline="text-before-edge" text-anchor="middle" transform="translate(428.6316972460066, 449.99999809265137) rotate(0)">5</text><text x="0" y="0" fill="#131300" font-size="14" dominant-baseline="text-before-edge" text-anchor="middle" transform="translate(517.863839830671, 449.99999809265137) rotate(0)">6</text><text x="0" y="0" fill="#131300" font-size="14" dominant-baseline="text-before-edge" text-anchor="middle" transform="translate(607.0959824153356, 449.99999809265137) rotate(0)">7</text><text x="0" y="0" fill="#131300" font-size="14" dominant-baseline="text-before-edge" text-anchor="middle" transform="translate(696.328125, 449.99999809265137) rotate(0)">8</text></g><g class="ticks"><path d="M 71.70312690734863,439.99999809265137 L 71.70312690734863,444.99999809265137" fill="none" stroke="#131300" stroke-width="2"/><path d="M 160.9352694920131,439.99999809265137 L 160.9352694920131,444.99999809265137" fill="none" stroke="#131300" stroke-width="2"/><path d="M 250.1674120766776,439.99999809265137 L 250.1674120766776,444.99999809265137" fill="none" stroke="#131300" stroke-width="2"/><path d="M 339.3995546613421,439.99999809265137 L 339.3995546613421,444.99999809265137" fill="none" stroke="#131300" stroke-width="2"/><path d="M 428.6316972460066,439.99999809265137 L 428.6316972460066,444.99999809265137" fill="none" stroke="#131300" stroke-width="2"/><path d="M 517.863839830671,439.99999809265137 L 517.863839830671,444.99999809265137" fill="none" stroke="#131300" stroke-width="2"/><path d="M 607.0959824153356,439.99999809265137 L 607.0959824153356,444.99999809265137" fill="none" stroke="#131300" stroke-width="2"/><path d="M 696.328125,439.99999809265137 L 696.328125,444.99999809265137" fill="none" stroke="#131300" stroke-width="2"/></g><g class="title"><text x="0" y="0" fill="#131300" font-size="16" dominant-baseline="text-before-edge" text-anchor="middle" transform="translate(384.0156259536743, 475.99999809265137) rotate(0)">n</text></g></g><g class="left-axis"><g class="axisl-line"><path d="M 67.03125190734863,43.1796875 L 67.03125190734863,437.99999809265137" fill="none" stroke="#131300" stroke-width="2"/></g><g class="label"><text x="0" y="0" fill="#131300" font-size="14" dominant-baseline="middle" text-anchor="end" transform="translate(56.03125190734863, 51.1796875) rotate(0)">300</text><text x="0" y="0" fill="#131300" font-size="14" dominant-baseline="middle" text-anchor="end" transform="translate(56.03125190734863, 76.43437487284342) rotate(0)">280</text><text x="0" y="0" fill="#131300" font-size="14" dominant-baseline="middle" text-anchor="end" transform="translate(56.03125190734863, 101.68906224568684) rotate(0)">260</text><text x="0" y="0" fill="#131300" font-size="14" dominant-baseline="middle" text-anchor="end" transform="translate(56.03125190734863, 126.94374961853026) rotate(0)">240</text><text x="0" y="0" fill="#131300" font-size="14" dominant-baseline="middle" text-anchor="end" transform="translate(56.03125190734863, 152.1984369913737) rotate(0)">220</text><text x="0" y="0" fill="#131300" font-size="14" dominant-baseline="middle" text-anchor="end" transform="translate(56.03125190734863, 177.45312436421713) rotate(0)">200</text><text x="0" y="0" fill="#131300" font-size="14" dominant-baseline="middle" text-anchor="end" transform="translate(56.03125190734863, 202.70781173706055) rotate(0)">180</text><text x="0" y="0" fill="#131300" font-size="14" dominant-baseline="middle" text-anchor="end" transform="translate(56.03125190734863, 227.962499109904) rotate(0)">160</text><text x="0" y="0" fill="#131300" font-size="14" dominant-baseline="middle" text-anchor="end" transform="translate(56.03125190734863, 253.21718648274737) rotate(0)">140</text><text x="0" y="0" fill="#131300" font-size="14" dominant-baseline="middle" text-anchor="end" transform="translate(56.03125190734863, 278.47187385559084) rotate(0)">120</text><text x="0" y="0" fill="#131300" font-size="14" dominant-baseline="middle" text-anchor="end" transform="translate(56.03125190734863, 303.72656122843426) rotate(0)">100</text><text x="0" y="0" fill="#131300" font-size="14" dominant-baseline="middle" text-anchor="end" transform="translate(56.03125190734863, 328.9812486012777) rotate(0)">80</text><text x="0" y="0" fill="#131300" font-size="14" dominant-baseline="middle" text-anchor="end" transform="translate(56.03125190734863, 354.2359359741211) rotate(0)">60</text><text x="0" y="0" fill="#131300" font-size="14" dominant-baseline="middle" text-anchor="end" transform="translate(56.03125190734863, 379.4906233469645) rotate(0)">40</text><text x="0" y="0" fill="#131300" font-size="14" dominant-baseline="middle" text-anchor="end" transform="translate(56.03125190734863, 404.74531071980795) rotate(0)">20</text><text x="0" y="0" fill="#131300" font-size="14" dominant-baseline="middle" text-anchor="end" transform="translate(56.03125190734863, 429.99999809265137) rotate(0)">0</text></g><g class="ticks"><path d="M 66.03125190734863,51.1796875 L 61.03125190734863,51.1796875" fill="none" stroke="#131300" stroke-width="2"/><path d="M 66.03125190734863,76.43437487284342 L 61.03125190734863,76.43437487284342" fill="none" stroke="#131300" stroke-width="2"/><path d="M 66.03125190734863,101.68906224568684 L 61.03125190734863,101.68906224568684" fill="none" stroke="#131300" stroke-width="2"/><path d="M 66.03125190734863,126.94374961853026 L 61.03125190734863,126.94374961853026" fill="none" stroke="#131300" stroke-width="2"/><path d="M 66.03125190734863,152.1984369913737 L 61.03125190734863,152.1984369913737" fill="none" stroke="#131300" stroke-width="2"/><path d="M 66.03125190734863,177.45312436421713 L 61.03125190734863,177.45312436421713" fill="none" stroke="#131300" stroke-width="2"/><path d="M 66.03125190734863,202.70781173706055 L 61.03125190734863,202.70781173706055" fill="none" stroke="#131300" stroke-width="2"/><path d="M 66.03125190734863,227.962499109904 L 61.03125190734863,227.962499109904" fill="none" stroke="#131300" stroke-width="2"/><path d="M 66.03125190734863,253.21718648274737 L 61.03125190734863,253.21718648274737" fill="none" stroke="#131300" stroke-width="2"/><path d="M 66.03125190734863,278.47187385559084 L 61.03125190734863,278.47187385559084" fill="none" stroke="#131300" stroke-width="2"/><path d="M 66.03125190734863,303.72656122843426 L 61.03125190734863,303.72656122843426" fill="none" stroke="#131300" stroke-width="2"/><path d="M 66.03125190734863,328.9812486012777 L 61.03125190734863,328.9812486012777" fill="none" stroke="#131300" stroke-width="2"/><path d="M 66.03125190734863,354.2359359741211 L 61.03125190734863,354.2359359741211" fill="none" stroke="#131300" stroke-width="2"/><path d="M 66.03125190734863,379.4906233469645 L 61.03125190734863,379.4906233469645" fill="none" stroke="#131300" stroke-width="2"/><path d="M 66.03125190734863,404.74531071980795 L 61.03125190734863,404.74531071980795" fill="none" stroke="#131300" stroke-width="2"/><path d="M 66.03125190734863,429.99999809265137 L 61.03125190734863,429.99999809265137" fill="none" stroke="#131300" stroke-width="2"/></g><g class="title"><text x="0" y="0" fill="#131300" font-size="16" dominant-baseline="text-before-edge" text-anchor="middle" transform="translate(5, 240.58984279632568) rotate(270)">f(n)</text></g></g></g><g class="mermaid-tmp-group"/></svg>