<svg id="my-svg" width="100%" xmlns="http://www.w3.org/2000/svg" xmlns:xlink="http://www.w3.org/1999/xlink" style="max-width: 700px; background-color: white;" viewBox="0 0 700 500" role="graphics-document document" aria-roledescription="xychart"><style>#my-svg{font-family:"trebuchet ms",verdana,arial,sans-serif;font-size:16px;fill:#333;}@keyframes edge-animation-frame{from{stroke-dashoffset:0;}}@keyframes dash{to{stroke-dashoffset:0;}}#my-svg .edge-animation-slow{stroke-dasharray:9,5!important;stroke-dashoffset:900;animation:dash 50s linear infinite;stroke-linecap:round;}#my-svg .edge-animation-fast{stroke-dasharray:9,5!important;stroke-dashoffset:900;animation:dash 20s linear infinite;stroke-linecap:round;}#my-svg .error-icon{fill:#552222;}#my-svg .error-text{fill:#552222;stroke:#552222;}#my-svg .edge-thickness-normal{stroke-width:1px;}#my-svg .edge-thickness-thick{stroke-width:3.5px;}#my-svg .edge-pattern-solid{stroke-dasharray:0;}#my-svg .edge-thickness-invisible{stroke-width:0;fill:none;}#my-svg .edge-pattern-dashed{stroke-dasharray:3;}#my-svg .edge-pattern-dotted{stroke-dasharray:2;}#my-svg .marker{fill:#333333;stroke:#333333;}#my-svg .marker.cross{stroke:#333333;}#my-svg svg{font-family:"trebuchet ms",verdana,arial,sans-serif;font-size:16px;}#my-svg p{margin:0;}#my-svg .node .neo-node{stroke:#9370DB;}#my-svg [data-look="neo"].node rect,#my-svg [data-look="neo"].cluster rect,#my-svg [data-look="neo"].node polygon{stroke:#9370DB;filter:drop-shadow(1px 2px 2px rgba(185, 185, 185, 1));}#my-svg [data-look="neo"].node path{stroke:#9370DB;stroke-width:1px;}#my-svg [data-look="neo"].node .outer-path{filter:drop-shadow(1px 2px 2px rgba(185, 185, 185, 1));}#my-svg [data-look="neo"].node .neo-line path{stroke:#9370DB;filter:none;}#my-svg [data-look="neo"].node circle{stroke:#9370DB;filter:drop-shadow(1px 2px 2px rgba(185, 185, 185, 1));}#my-svg [data-look="neo"].node circle .state-start{fill:#000000;}#my-svg [data-look="neo"].icon-shape .icon{fill:#9370DB;filter:drop-shadow(1px 2px 2px rgba(185, 185, 185, 1));}#my-svg [data-look="neo"].icon-shape .icon-neo path{stroke:#9370DB;filter:drop-shadow(1px 2px 2px rgba(185, 185, 185, 1));}#my-svg :root{--mermaid-font-family:"trebuchet ms",verdana,arial,sans-serif;}</style><g/><g class="main"><rect width="700" height="500" class="background" fill="white"/><g class="chart-title"><text x="0" y="0" fill="#131300" font-size="20" dominant-baseline="middle" text-anchor="middle" transform="translate(350, 21.55078125) rotate(0)">Polynomial vs Exponential vs Logarithmic Growth</text></g><g class="plot"><g class="line-plot-0"><path d="M90.063,429.995L176.147,429.989L262.232,429.986L348.317,429.984L434.402,429.982L520.487,429.981L606.571,429.979L692.656,429.978" fill="none" stroke="#ECECFF" stroke-width="2"/></g><g class="line-plot-1"><path d="M90.063,429.995L176.147,429.978L262.232,429.964L348.317,429.951L434.402,429.94L520.487,429.931L606.571,429.921L692.656,429.913" fill="none" stroke="#8493A6" stroke-width="2"/></g><g class="line-plot-2"><path d="M90.063,429.989L176.147,429.978L262.232,429.968L348.317,429.957L434.402,429.946L520.487,429.935L606.571,429.924L692.656,429.913" fill="none" stroke="#FFC3A0" stroke-width="2"/></g><g class="line-plot-3"><path d="M90.063,429.978L176.147,429.913L262.232,429.805L348.317,429.654L434.402,429.459L520.487,429.221L606.571,428.939L692.656,428.614" fill="none" stroke="#DCDDE1" stroke-width="2"/></g><g class="line-plot-4"><path d="M90.063,429.957L176.147,429.654L262.232,428.831L348.317,427.229L434.402,424.587L520.487,420.647L606.571,415.147L692.656,407.829" fill="none" stroke="#B8E994" stroke-width="2"/></g><g class="line-plot-5"><path d="M90.063,429.978L176.147,429.913L262.232,429.654L348.317,428.614L434.402,424.457L520.487,407.829L606.571,341.316L692.656,75.264" fill="none" stroke="#D1A36F" stroke-width="2"/></g></g><g class="bottom-axis"><g class="axis-line"><path d="M 82.71875190734863,438.99999809265137 L 700,438.99999809265137" fill="none" stroke="#131300" stroke-width="2"/></g><g class="label"><text x="0" y="0" fill="#131300" font-size="14" dominant-baseline="text-before-edge" text-anchor="middle" transform="translate(90.06250190734863, 449.99999809265137) rotate(0)">2</text><text x="0" y="0" fill="#131300" font-size="14" dominant-baseline="text-before-edge" text-anchor="middle" transform="translate(176.1473230634417, 449.99999809265137) rotate(0)">4</text><text x="0" y="0" fill="#131300" font-size="14" dominant-baseline="text-before-edge" text-anchor="middle" transform="translate(262.23214421953475, 449.99999809265137) rotate(0)">6</text><text x="0" y="0" fill="#131300" font-size="14" dominant-baseline="text-before-edge" text-anchor="middle" transform="translate(348.3169653756278, 449.99999809265137) rotate(0)">8</text><text x="0" y="0" fill="#131300" font-size="14" dominant-baseline="text-before-edge" text-anchor="middle" transform="translate(434.40178653172086, 449.99999809265137) rotate(0)">10</text><text x="0" y="0" fill="#131300" font-size="14" dominant-baseline="text-before-edge" text-anchor="middle" transform="translate(520.486607687814, 449.99999809265137) rotate(0)">12</text><text x="0" y="0" fill="#131300" font-size="14" dominant-baseline="text-before-edge" text-anchor="middle" transform="translate(606.5714288439069, 449.99999809265137) rotate(0)">14</text><text x="0" y="0" fill="#131300" font-size="14" dominant-baseline="text-before-edge" text-anchor="middle" transform="translate(692.65625, 449.99999809265137) rotate(0)">16</text></g><g class="ticks"><path d="M 90.06250190734863,439.99999809265137 L 90.06250190734863,444.99999809265137" fill="none" stroke="#131300" stroke-width="2"/><path d="M 176.1473230634417,439.99999809265137 L 176.1473230634417,444.99999809265137" fill="none" stroke="#131300" stroke-width="2"/><path d="M 262.23214421953475,439.99999809265137 L 262.23214421953475,444.99999809265137" fill="none" stroke="#131300" stroke-width="2"/><path d="M 348.3169653756278,439.99999809265137 L 348.3169653756278,444.99999809265137" fill="none" stroke="#131300" stroke-width="2"/><path d="M 434.40178653172086,439.99999809265137 L 434.40178653172086,444.99999809265137" fill="none" stroke="#131300" stroke-width="2"/><path d="M 520.486607687814,439.99999809265137 L 520.486607687814,444.99999809265137" fill="none" stroke="#131300" stroke-width="2"/><path d="M 606.5714288439069,439.99999809265137 L 606.5714288439069,444.99999809265137" fill="none" stroke="#131300" stroke-width="2"/><path d="M 692.65625,439.99999809265137 L 692.65625,444.99999809265137" fill="none" stroke="#131300" stroke-width="2"/></g><g class="title"><text x="0" y="0" fill="#131300" font-size="16" dominant-baseline="text-before-edge" text-anchor="middle" transform="translate(391.3593759536743, 475.99999809265137) rotate(0)">n</text></g></g><g class="left-axis"><g class="axisl-line"><path d="M 81.71875190734863,43.1015625 L 81.71875190734863,437.99999809265137" fill="none" stroke="#131300" stroke-width="2"/></g><g class="label"><text x="0" y="0" fill="#131300" font-size="14" dominant-baseline="middle" text-anchor="end" transform="translate(70.71875190734863, 51.1015625) rotate(0)">70000</text><text x="0" y="0" fill="#131300" font-size="14" dominant-baseline="middle" text-anchor="end" transform="translate(70.71875190734863, 78.16573647090365) rotate(0)">65000</text><text x="0" y="0" fill="#131300" font-size="14" dominant-baseline="middle" text-anchor="end" transform="translate(70.71875190734863, 105.22991044180736) rotate(0)">60000</text><text x="0" y="0" fill="#131300" font-size="14" dominant-baseline="middle" text-anchor="end" transform="translate(70.71875190734863, 132.29408441271102) rotate(0)">55000</text><text x="0" y="0" fill="#131300" font-size="14" dominant-baseline="middle" text-anchor="end" transform="translate(70.71875190734863, 159.35825838361467) rotate(0)">50000</text><text x="0" y="0" fill="#131300" font-size="14" dominant-baseline="middle" text-anchor="end" transform="translate(70.71875190734863, 186.42243235451832) rotate(0)">45000</text><text x="0" y="0" fill="#131300" font-size="14" dominant-baseline="middle" text-anchor="end" transform="translate(70.71875190734863, 213.48660632542203) rotate(0)">40000</text><text x="0" y="0" fill="#131300" font-size="14" dominant-baseline="middle" text-anchor="end" transform="translate(70.71875190734863, 240.55078029632568) rotate(0)">35000</text><text x="0" y="0" fill="#131300" font-size="14" dominant-baseline="middle" text-anchor="end" transform="translate(70.71875190734863, 267.61495426722934) rotate(0)">30000</text><text x="0" y="0" fill="#131300" font-size="14" dominant-baseline="middle" text-anchor="end" transform="translate(70.71875190734863, 294.679128238133) rotate(0)">25000</text><text x="0" y="0" fill="#131300" font-size="14" dominant-baseline="middle" text-anchor="end" transform="translate(70.71875190734863, 321.7433022090367) rotate(0)">20000</text><text x="0" y="0" fill="#131300" font-size="14" dominant-baseline="middle" text-anchor="end" transform="translate(70.71875190734863, 348.80747617994035) rotate(0)">15000</text><text x="0" y="0" fill="#131300" font-size="14" dominant-baseline="middle" text-anchor="end" transform="translate(70.71875190734863, 375.87165015084406) rotate(0)">10000</text><text x="0" y="0" fill="#131300" font-size="14" dominant-baseline="middle" text-anchor="end" transform="translate(70.71875190734863, 402.9358241217477) rotate(0)">5000</text><text x="0" y="0" fill="#131300" font-size="14" dominant-baseline="middle" text-anchor="end" transform="translate(70.71875190734863, 429.99999809265137) rotate(0)">0</text></g><g class="ticks"><path d="M 80.71875190734863,51.1015625 L 75.71875190734863,51.1015625" fill="none" stroke="#131300" stroke-width="2"/><path d="M 80.71875190734863,78.16573647090365 L 75.71875190734863,78.16573647090365" fill="none" stroke="#131300" stroke-width="2"/><path d="M 80.71875190734863,105.22991044180736 L 75.71875190734863,105.22991044180736" fill="none" stroke="#131300" stroke-width="2"/><path d="M 80.71875190734863,132.29408441271102 L 75.71875190734863,132.29408441271102" fill="none" stroke="#131300" stroke-width="2"/><path d="M 80.71875190734863,159.35825838361467 L 75.71875190734863,159.35825838361467" fill="none" stroke="#131300" stroke-width="2"/><path d="M 80.71875190734863,186.42243235451832 L 75.71875190734863,186.42243235451832" fill="none" stroke="#131300" stroke-width="2"/><path d="M 80.71875190734863,213.48660632542203 L 75.71875190734863,213.48660632542203" fill="none" stroke="#131300" stroke-width="2"/><path d="M 80.71875190734863,240.55078029632568 L 75.71875190734863,240.55078029632568" fill="none" stroke="#131300" stroke-width="2"/><path d="M 80.71875190734863,267.61495426722934 L 75.71875190734863,267.61495426722934" fill="none" stroke="#131300" stroke-width="2"/><path d="M 80.71875190734863,294.679128238133 L 75.71875190734863,294.679128238133" fill="none" stroke="#131300" stroke-width="2"/><path d="M 80.71875190734863,321.7433022090367 L 75.71875190734863,321.7433022090367" fill="none" stroke="#131300" stroke-width="2"/><path d="M 80.71875190734863,348.80747617994035 L 75.71875190734863,348.80747617994035" fill="none" stroke="#131300" stroke-width="2"/><path d="M 80.71875190734863,375.87165015084406 L 75.71875190734863,375.87165015084406" fill="none" stroke="#131300" stroke-width="2"/><path d="M 80.71875190734863,402.9358241217477 L 75.71875190734863,402.9358241217477" fill="none" stroke="#131300" stroke-width="2"/><path d="M 80.71875190734863,429.99999809265137 L 75.71875190734863,429.99999809265137" fill="none" stroke="#131300" stroke-width="2"/></g><g class="title"><text x="0" y="0" fill="#131300" font-size="16" dominant-baseline="text-before-edge" text-anchor="middle" transform="translate(5, 240.55078029632568) rotate(270)">f(n)</text></g></g></g><g class="mermaid-tmp-group"/></svg>